<svg width="129" height="129" viewBox="0 0 129 129" fill="none" xmlns="http://www.w3.org/2000/svg">
<rect width="129" height="129" rx="12" fill="#4488BB"/>
<path d="M29.96 106.72C24.52 106.72 20.36 105.4 17.48 102.76C14.6 100.04 13.16 96.24 13.16 91.36C13.16 88.96 13.44 86.68 14 84.52L26.84 24.4L44.6 22L38.84 49C41.08 47.64 42.92 46.76 44.36 46.36C45.8 45.88 47.24 45.64 48.68 45.64C58.12 45.64 62.84 52.48 62.84 66.16C62.84 71.68 61.76 77.6 59.6 83.92C57.52 90.16 54 95.52 49.04 100C44.16 104.48 37.8 106.72 29.96 106.72ZM36.68 95.08C39.16 95.08 41.48 93.56 43.64 90.52C45.8 87.4 47.52 83.56 48.8 79C50.08 74.36 50.72 69.92 50.72 65.68C50.72 62.48 50.16 59.76 49.04 57.52C47.92 55.28 46.36 54.16 44.36 54.16C43.16 54.16 41.8 54.36 40.28 54.76C38.84 55.08 37.84 55.6 37.28 56.32L30.68 86.8C30.44 87.76 30.32 88.68 30.32 89.56C30.32 93.24 32.44 95.08 36.68 95.08Z" fill="#FFDDAA"/>
<path d="M83.2803 106.72C77.8403 106.72 73.6803 105.4 70.8003 102.76C67.9203 100.04 66.4803 96.24 66.4803 91.36C66.4803 88.96 66.7603 86.68 67.3203 84.52L80.1603 24.4L97.9203 22L92.1603 49C94.4003 47.64 96.2403 46.76 97.6803 46.36C99.1203 45.88 100.56 45.64 102 45.64C111.44 45.64 116.16 52.48 116.16 66.16C116.16 71.68 115.08 77.6 112.92 83.92C110.84 90.16 107.32 95.52 102.36 100C97.4803 104.48 91.1203 106.72 83.2803 106.72ZM90.0003 95.08C92.4803 95.08 94.8003 93.56 96.9603 90.52C99.1203 87.4 100.84 83.56 102.12 79C103.4 74.36 104.04 69.92 104.04 65.68C104.04 62.48 103.48 59.76 102.36 57.52C101.24 55.28 99.6803 54.16 97.6803 54.16C96.4803 54.16 95.1203 54.36 93.6003 54.76C92.1603 55.08 91.1603 55.6 90.6003 56.32L84.0003 86.8C83.7603 87.76 83.6403 88.68 83.6403 89.56C83.6403 93.24 85.7603 95.08 90.0003 95.08Z" fill="#FFDDAA"/>
</svg>
