<svg xmlns="http://www.w3.org/2000/svg" width="200" height="200" fill="none"><path fill="#16A34A" d="M99.5 154.131c33.964 0 61.5-27.341 61.5-61.066C161 59.341 133.464 32 99.5 32S38 59.341 38 93.065v51.424a22.403 22.403 0 0 0 5.386 14.575 22.694 22.694 0 0 0 13.612 7.64 22.793 22.793 0 0 0 15.354-2.932 22.531 22.531 0 0 0 9.786-12.109 61.88 61.88 0 0 0 17.362 2.468Z" style="fill:#16a34a;fill:color(display-p3 .0863 .6392 .2902);fill-opacity:1"/><path fill="#F4F4F5" d="M99.5 42.5c28.168 0 51 23.28 51 52a13.13 13.13 0 0 1-3.734 9.192 12.627 12.627 0 0 1-9.016 3.808c-3.382 0-6.625-1.37-9.016-3.808A13.13 13.13 0 0 1 125 94.5V88a6.567 6.567 0 0 0-1.867-4.596 6.314 6.314 0 0 0-4.508-1.904 6.314 6.314 0 0 0-4.508 1.904A6.567 6.567 0 0 0 112.25 88v6.5a13.13 13.13 0 0 1-3.734 9.192A12.627 12.627 0 0 1 99.5 107.5c-3.382 0-6.624-1.37-9.016-3.808A13.13 13.13 0 0 1 86.75 94.5a6.565 6.565 0 0 0-1.867-4.596A6.313 6.313 0 0 0 80.375 88c-1.69 0-3.312.685-4.508 1.904A6.565 6.565 0 0 0 74 94.5v13a13.13 13.13 0 0 1-3.734 9.192 12.627 12.627 0 0 1-9.016 3.808c-3.382 0-6.624-1.37-9.016-3.808A13.13 13.13 0 0 1 48.5 107.5v-13c0-28.72 22.832-52 51-52Z" style="fill:#f4f4f5;fill:color(display-p3 .9569 .9569 .9608);fill-opacity:1"/></svg>